<svg width="100%" height="100%" id="svg" viewBox="0 0 1440 490" xmlns="http://www.w3.org/2000/svg" class="transition duration-300 ease-in-out delay-150"><defs><linearGradient id="gradient" x1="0%" y1="51%" x2="100%" y2="49%"><stop offset="5%" stop-color="#fcb900"></stop><stop offset="95%" stop-color="#ff6900"></stop></linearGradient></defs><path d="M 0,500 L 0,0 C 90.96650717703349,54.02870813397129 181.93301435406698,108.05741626794259 268,115 C 354.066985645933,121.94258373205741 435.23444976076553,81.79904306220095 535,84 C 634.7655502392345,86.20095693779905 753.129186602871,130.7464114832536 867,132 C 980.870813397129,133.2535885167464 1090.248803827751,91.2153110047847 1185,62 C 1279.751196172249,32.78468899521531 1359.8755980861245,16.392344497607656 1440,0 L 1440,500 L 0,500 Z" stroke="none" stroke-width="0" fill="url(#gradient)" fill-opacity="0.53" class="transition-all duration-300 ease-in-out delay-150 path-0"></path><defs><linearGradient id="gradient" x1="0%" y1="51%" x2="100%" y2="49%"><stop offset="5%" stop-color="#fcb900"></stop><stop offset="95%" stop-color="#ff6900"></stop></linearGradient></defs><path d="M 0,500 L 0,0 C 111.98086124401911,108.89952153110048 223.96172248803822,217.79904306220095 335,271 C 446.0382775119618,324.20095693779905 556.133971291866,321.7033492822967 626,309 C 695.866028708134,296.2966507177033 725.5023923444976,273.3875598086125 820,274 C 914.4976076555024,274.6124401913875 1073.8564593301435,298.7464114832536 1188,257 C 1302.1435406698565,215.25358851674642 1371.0717703349283,107.62679425837321 1440,0 L 1440,500 L 0,500 Z" stroke="none" stroke-width="0" fill="url(#gradient)" fill-opacity="1" class="transition-all duration-300 ease-in-out delay-150 path-1"></path></svg>
