<svg width="100%" height="100%" id="svg" viewBox="0 0 1440 690" xmlns="http://www.w3.org/2000/svg" class="transition duration-300 ease-in-out delay-150"><defs><linearGradient id="gradient" x1="0%" y1="50%" x2="100%" y2="50%"><stop offset="5%" stop-color="#0693e3"></stop><stop offset="95%" stop-color="#8ED1FC"></stop></linearGradient></defs><path d="M 0,700 L 0,175 C 73.53110047846891,153.87081339712918 147.06220095693783,132.74162679425837 243,110 C 338.93779904306217,87.25837320574162 457.2822966507176,62.90430622009572 558,106 C 658.7177033492824,149.09569377990428 741.8086124401914,259.6411483253588 835,254 C 928.1913875598086,248.35885167464116 1031.4832535885168,126.5311004784689 1134,94 C 1236.5167464114832,61.4688995215311 1338.2583732057415,118.23444976076556 1440,175 L 1440,700 L 0,700 Z" stroke="none" stroke-width="0" fill="url(#gradient)" fill-opacity="0.53" class="transition-all duration-300 ease-in-out delay-150 path-0"></path><defs><linearGradient id="gradient" x1="0%" y1="50%" x2="100%" y2="50%"><stop offset="5%" stop-color="#0693e3"></stop><stop offset="95%" stop-color="#8ED1FC"></stop></linearGradient></defs><path d="M 0,700 L 0,408 C 118.75598086124404,379.6650717703349 237.51196172248808,351.33014354066984 325,350 C 412.4880382775119,348.66985645933016 468.7081339712919,374.3444976076555 557,406 C 645.2918660287081,437.6555023923445 765.6555023923445,475.2918660287081 865,485 C 964.3444976076555,494.7081339712919 1042.6698564593303,476.48803827751203 1135,459 C 1227.3301435406697,441.51196172248797 1333.6650717703349,424.755980861244 1440,408 L 1440,700 L 0,700 Z" stroke="none" stroke-width="0" fill="url(#gradient)" fill-opacity="1" class="transition-all duration-300 ease-in-out delay-150 path-1"></path></svg>
